<svg width="50" height="51" viewBox="0 0 50 51" fill="none" xmlns="http://www.w3.org/2000/svg">
<g clip-path="url(#clip0_6223_2164)">
<path d="M46.239 14.3876L46.2374 14.3486C46.2157 13.8684 46.2012 13.3603 46.1924 12.7949C46.1516 10.038 43.9601 7.75763 41.2028 7.60352C35.4541 7.2827 31.0069 5.40816 27.2071 1.70448L27.1747 1.67359C25.9353 0.53719 24.0657 0.53719 22.8259 1.67359L22.7935 1.70448C18.9937 5.40816 14.5465 7.2827 8.7978 7.6039C6.04093 7.75763 3.84901 10.038 3.80819 12.7953C3.7998 13.3568 3.78492 13.8649 3.76318 14.3486L3.76089 14.4391C3.64912 20.3011 3.51027 27.5967 5.9509 34.2186C7.29291 37.8601 9.32538 41.0255 11.9915 43.6275C15.028 46.5908 19.0051 48.9433 23.8124 50.6194C23.9688 50.674 24.1313 50.7183 24.2969 50.7514C24.5303 50.798 24.7653 50.8212 25.0003 50.8212C25.2353 50.8212 25.4707 50.798 25.7037 50.7514C25.8693 50.7183 26.0329 50.6736 26.1901 50.6187C30.9916 48.9395 34.9646 46.5858 37.9985 43.6229C40.6634 41.0202 42.6959 37.854 44.039 34.2117C46.4888 27.57 46.3503 20.2606 46.239 14.3876ZM41.2863 33.1966C38.7122 40.176 33.4575 44.9691 25.2219 47.8492C25.1926 47.8591 25.1613 47.8679 25.1289 47.8744C25.0438 47.8912 24.9572 47.8912 24.871 47.874C24.8389 47.8675 24.8077 47.8591 24.7787 47.8492C16.5344 44.9745 11.2762 40.184 8.70396 33.2043C6.45444 27.1004 6.58185 20.4033 6.69439 14.4951L6.69515 14.4623C6.71804 13.9546 6.7333 13.4228 6.74169 12.8384C6.76 11.6143 7.73503 10.6015 8.96145 10.5332C12.2146 10.3516 15.0726 9.72296 17.6986 8.61136C20.3212 7.50128 22.6505 5.9365 24.8187 3.82774C24.929 3.73466 25.072 3.73428 25.1819 3.82774C27.3505 5.9365 29.6798 7.50128 32.302 8.61136C34.928 9.72296 37.786 10.3516 41.0395 10.5332C42.266 10.6015 43.241 11.6143 43.2589 12.8388C43.2677 13.4263 43.283 13.958 43.3058 14.4623C43.418 20.3774 43.5424 27.0798 41.2863 33.1966Z" fill="#244D4D"/>
<path d="M24.9993 13.3613C18.1283 13.3613 12.5386 18.9514 12.5386 25.822C12.5386 32.6931 18.1283 38.2831 24.9993 38.2831C31.8699 38.2831 37.46 32.6931 37.46 25.822C37.46 18.9514 31.8699 13.3613 24.9993 13.3613ZM24.9993 35.3489C19.7461 35.3489 15.4725 31.0753 15.4725 25.822C15.4725 20.5688 19.7461 16.2952 24.9993 16.2952C30.2521 16.2952 34.5257 20.5688 34.5257 25.822C34.5257 31.0753 30.2521 35.3489 24.9993 35.3489Z" fill="#244D4D"/>
<path d="M28.5806 21.9537L22.7929 27.7414L21.222 26.1705C20.6491 25.5975 19.7202 25.5975 19.1472 26.1705C18.5746 26.7434 18.5746 27.6723 19.1472 28.2449L21.7557 30.8534C22.0422 31.1399 22.4176 31.2829 22.7929 31.2829C23.1683 31.2829 23.5437 31.1399 23.8301 30.8534L30.6554 24.0281C31.228 23.4552 31.228 22.5263 30.6554 21.9537C30.0824 21.3803 29.1535 21.3803 28.5806 21.9537Z" fill="#244D4D"/>
</g>
<defs>
<clipPath id="clip0_6223_2164">
<rect width="50" height="50" fill="white" transform="translate(0 0.821289)"/>
</clipPath>
</defs>
</svg>
