<svg width="50" height="51" viewBox="0 0 50 51" fill="none" xmlns="http://www.w3.org/2000/svg">
<g clip-path="url(#clip0_6223_2169)">
<path d="M40.6901 20.7183H35.8789V17.4761C35.8789 16.6671 35.223 16.0112 34.4141 16.0112H1.46484C0.655859 16.0112 0 16.6671 0 17.4761V44.1492C0 44.9582 0.655859 45.6141 1.46484 45.6141H6.45312C8.04727 51.8524 16.851 51.8482 18.4427 45.6141H31.5572C33.1514 51.8524 41.9551 51.8482 43.5468 45.6141H48.5352C49.3441 45.6141 50 44.9582 50 44.1492V30.0281C50 24.8946 45.8235 20.7183 40.6901 20.7183ZM12.4479 47.3914C10.6602 47.3914 9.20576 45.9369 9.20576 44.1492C9.38379 39.848 15.5128 39.8493 15.6901 44.1492C15.6901 45.9369 14.2356 47.3914 12.4479 47.3914ZM32.9492 40.0433C32.2866 40.7853 31.8009 41.6876 31.5572 42.6843H18.4427C16.8485 36.446 8.04482 36.4502 6.45312 42.6843H2.92969V18.9408H32.9492V40.0433ZM37.5521 47.3914C35.7643 47.3914 34.3099 45.9369 34.3099 44.1492C34.4879 39.848 40.6169 39.8493 40.7942 44.1492C40.7942 45.9369 39.3398 47.3914 37.5521 47.3914ZM47.0703 42.6844H43.5484C42.8891 39.9859 40.4508 37.9773 37.5521 37.9773H35.8789V23.6479H39.2253V33.1662C39.2253 33.9752 39.8812 34.6311 40.6901 34.6311H47.0703V42.6844ZM47.0703 31.7013H42.155V23.8176C44.9692 24.4813 47.0703 27.0141 47.0703 30.0281V31.7013Z" fill="#244D4D"/>
<path d="M35.9828 12.6648H39.9053C41.8489 12.5874 41.8474 9.81177 39.9053 9.73511H37.712L38.0082 7.95776H39.9053C41.8489 7.88032 41.8474 5.10474 39.9053 5.02808H38.4964L38.7926 3.25073H41.4743C43.4178 3.17329 43.4164 0.397705 41.4743 0.321045H37.5517C36.8356 0.321045 36.2245 0.838721 36.1068 1.54507L34.5378 10.9591C34.389 11.8522 35.0789 12.6648 35.9828 12.6648Z" fill="#222222"/>
<path d="M26.5691 12.6648H30.4917C32.4352 12.5874 32.4337 9.81177 30.4917 9.73511H28.2983L28.5945 7.95776H30.4917C32.4352 7.88032 32.4337 5.10474 30.4917 5.02808H29.0829L29.3792 3.25073H32.0607C34.0043 3.17329 34.0028 0.397705 32.0607 0.321045H28.1382C27.4221 0.321045 26.811 0.838721 26.6933 1.54507L25.1243 10.9591C24.9754 11.8522 25.6653 12.6648 26.5691 12.6648Z" fill="#244D4D"/>
<path d="M15.345 12.6449C16.4823 12.8344 16.9626 11.849 17.0307 11.4408L17.2709 9.99956L20.1548 12.3377C20.8214 12.8781 21.7374 12.7119 22.2153 12.1224C22.7248 11.494 22.6284 10.5715 21.9999 10.0621L20.3719 8.74224H21.7308C22.4468 8.74224 23.058 8.22456 23.1757 7.51831L24.0913 2.02681C24.2401 1.13364 23.5502 0.321045 22.6463 0.321045H17.1548C16.4387 0.321045 15.8276 0.838721 15.7099 1.54507L14.8008 6.99917C14.8004 7.00112 14.8002 7.00317 14.7998 7.00513C14.7991 7.00903 14.7986 7.01294 14.7979 7.01685C14.7947 7.03472 14.7914 7.05269 14.7889 7.07075L14.1408 10.9591C14.0078 11.7571 14.5469 12.5119 15.345 12.6449ZM18.3957 3.25073H20.917L20.49 5.81255H17.9687L18.3957 3.25073Z" fill="#244D4D"/>
<path d="M6.7155 12.6448C7.8528 12.8343 8.33317 11.8488 8.40124 11.4407L8.85095 8.74224H10.8788C12.8223 8.66479 12.8209 5.88921 10.8788 5.81255H9.33923L9.76618 3.25073H12.4478C14.3914 3.17329 14.3899 0.397705 12.4478 0.321045H8.52526C7.80915 0.321045 7.19802 0.838721 7.08034 1.54507L5.5114 10.9591C5.37829 11.757 5.91745 12.5118 6.7155 12.6448Z" fill="#244D4D"/>
</g>
<defs>
<clipPath id="clip0_6223_2169">
<rect width="50" height="50" fill="white" transform="translate(0 0.306152)"/>
</clipPath>
</defs>
</svg>
