<svg width="50" height="51" viewBox="0 0 50 51" fill="none" xmlns="http://www.w3.org/2000/svg">
<g clip-path="url(#clip0_6223_2177)">
<path d="M47.3217 18.5378C46.6619 16.4948 46.9432 13.4281 45.2283 11.0602C43.5 8.67372 40.494 7.99539 38.7967 6.75399C37.1172 5.52567 35.5547 2.85272 32.7296 1.93084C29.9842 1.03494 27.1768 2.25067 25 2.25067C22.8235 2.25067 20.0163 1.03465 17.2704 1.93075C14.4458 2.85243 12.882 5.52596 11.2036 6.7537C9.50811 7.99364 6.4999 8.67381 4.77187 11.0599C3.0585 13.4259 3.33691 16.4996 2.67832 18.5377C2.05156 20.4774 0 22.8055 0 25.8203C0 28.837 2.04922 31.156 2.67832 33.1028C3.33809 35.1458 3.05684 38.2125 4.77168 40.5804C6.4999 42.967 9.50576 43.6452 11.2033 44.8867C12.8825 46.1148 14.4453 48.788 17.2704 49.7098C20.014 50.6051 22.8258 49.3899 25 49.3899C27.1712 49.3899 29.9896 50.6038 32.7296 49.7099C35.5543 48.7882 37.1171 46.1152 38.7964 44.8869C40.4919 43.647 43.5001 42.9668 45.2281 40.5807C46.9416 38.2146 46.663 35.1412 47.3217 33.1029C47.9484 31.1631 50 28.835 50 25.8203C50 22.8038 47.9513 20.4854 47.3217 18.5378ZM43.6048 31.9017C42.8357 34.2821 43.0372 36.9461 42.0646 38.2892C41.0788 39.6503 38.4891 40.272 36.4907 41.7337C34.5143 43.1791 33.129 45.4704 31.5179 45.9961C29.9937 46.4935 27.5097 45.4835 25.0001 45.4835C22.4722 45.4835 20.0138 46.4957 18.4822 45.9961C16.8713 45.4704 15.488 43.1807 13.5094 41.7336C11.5229 40.2808 8.91836 39.6463 7.93545 38.2891C6.96592 36.9504 7.15977 34.268 6.39541 31.9018C5.64619 29.5836 3.90625 27.5763 3.90625 25.8203C3.90625 24.0626 5.64463 22.0622 6.39522 19.7389C7.16426 17.3586 6.96279 14.6944 7.93545 13.3514C8.92061 11.9912 11.5123 11.3675 13.5094 9.90692C15.4921 8.45682 16.8687 6.17098 18.482 5.64452C20.005 5.14764 22.4971 6.15711 24.9999 6.15711C27.5324 6.15711 29.9847 5.14422 31.5178 5.64452C33.1285 6.1701 34.513 8.46073 36.4907 9.90702C38.477 11.3598 41.0816 11.9943 42.0646 13.3514C43.0343 14.6904 42.8394 17.3701 43.6046 19.7387V19.7388C44.3538 22.057 46.0938 24.0643 46.0938 25.8203C46.0938 27.578 44.3554 29.5784 43.6048 31.9017ZM33.9983 19.5513C34.7611 20.314 34.7611 21.5507 33.9983 22.3134L24.2224 32.0893C23.4596 32.8521 22.2229 32.852 21.4602 32.0893L16.0018 26.6309C15.239 25.8682 15.2389 24.6315 16.0017 23.8688C16.7645 23.1061 18.0013 23.106 18.7638 23.8688L22.8412 27.9462L31.236 19.5514C31.9988 18.7886 33.2355 18.7886 33.9983 19.5513Z" fill="#244D4D"/>
</g>
<defs>
<clipPath id="clip0_6223_2177">
<rect width="50" height="50" fill="white" transform="translate(0 0.820068)"/>
</clipPath>
</defs>
</svg>
