<svg width="67" height="52" viewBox="0 0 67 52" fill="none" xmlns="http://www.w3.org/2000/svg">
<g clip-path="url(#clip0_6223_2226)">
<path d="M12.1882 51.8571V48.4077C12.1882 47.0854 11.3834 46.223 10.0036 46.223C9.31368 46.223 8.56629 46.453 8.04887 47.2003C7.64644 46.5679 7.07152 46.223 6.20915 46.223C5.63424 46.223 5.05934 46.3955 4.59941 47.0279V46.338H3.39209V51.8571H4.59941V48.8101C4.59941 47.8327 5.11682 47.3728 5.9217 47.3728C6.72657 47.3728 7.12901 47.8902 7.12901 48.8101V51.8571H8.33633V48.8101C8.33633 47.8327 8.91123 47.3728 9.65862 47.3728C10.4635 47.3728 10.8659 47.8902 10.8659 48.8101V51.8571H12.1882V51.8571ZM30.068 46.338H28.1133V44.6707H26.906V46.338H25.8136V47.4303H26.906V49.9599C26.906 51.2247 27.4234 51.9721 28.8032 51.9721C29.3206 51.9721 29.8955 51.7996 30.2979 51.5697L29.953 50.5348C29.608 50.7648 29.2056 50.8223 28.9181 50.8223C28.3432 50.8223 28.1133 50.4773 28.1133 49.9024V47.4303H30.068V46.338V46.338ZM40.3014 46.223C39.6115 46.223 39.1516 46.5679 38.8641 47.0279V46.338H37.6568V51.8571H38.8641V48.7526C38.8641 47.8328 39.2665 47.3153 40.0139 47.3153C40.2439 47.3153 40.5314 47.3728 40.7613 47.4303L41.1063 46.2805C40.8763 46.223 40.5313 46.223 40.3014 46.223V46.223ZM24.8363 46.7979C24.2614 46.3955 23.4565 46.223 22.5941 46.223C21.2143 46.223 20.2945 46.9129 20.2945 48.0052C20.2945 48.9251 20.9844 49.4425 22.1917 49.615L22.7666 49.6725C23.399 49.7874 23.7439 49.9599 23.7439 50.2474C23.7439 50.6498 23.284 50.9373 22.4791 50.9373C21.6743 50.9373 21.0419 50.6498 20.6394 50.3624L20.0645 51.2822C20.6969 51.7421 21.5593 51.9721 22.4217 51.9721C24.0314 51.9721 24.9513 51.2247 24.9513 50.1899C24.9513 49.2125 24.2039 48.6951 23.054 48.5226L22.4791 48.4652C21.9617 48.4077 21.5593 48.2927 21.5593 47.9477C21.5593 47.5453 21.9617 47.3153 22.5941 47.3153C23.284 47.3153 23.9739 47.6028 24.3189 47.7753L24.8363 46.7979V46.7979ZM56.9163 46.223C56.2264 46.223 55.7665 46.5679 55.4791 47.0279V46.338H54.2717V51.8571H55.4791V48.7526C55.4791 47.8328 55.8815 47.3153 56.6289 47.3153C56.8588 47.3153 57.1463 47.3728 57.3763 47.4303L57.7212 46.2805C57.4912 46.223 57.1463 46.223 56.9163 46.223V46.223ZM41.5087 49.0975C41.5087 50.7648 42.6585 51.9721 44.4407 51.9721C45.2456 51.9721 45.8205 51.7996 46.3954 51.3397L45.8205 50.3624C45.3606 50.7073 44.9007 50.8798 44.3833 50.8798C43.4059 50.8798 42.716 50.1899 42.716 49.0975C42.716 48.0627 43.4059 47.3728 44.3833 47.3153C44.9007 47.3153 45.3606 47.4878 45.8205 47.8327L46.3954 46.8554C45.8205 46.3955 45.2456 46.223 44.4407 46.223C42.6585 46.223 41.5087 47.4303 41.5087 49.0975V49.0975ZM52.662 49.0975V46.338H51.4547V47.0279C51.0522 46.5105 50.4773 46.223 49.7299 46.223C48.1777 46.223 46.9704 47.4303 46.9704 49.0975C46.9704 50.7648 48.1777 51.9721 49.7299 51.9721C50.5348 51.9721 51.1097 51.6846 51.4547 51.1672V51.8571H52.662V49.0975ZM48.2352 49.0975C48.2352 48.1202 48.8676 47.3153 49.9024 47.3153C50.8798 47.3153 51.5696 48.0627 51.5696 49.0975C51.5696 50.0749 50.8798 50.8798 49.9024 50.8798C48.8676 50.8223 48.2352 50.0749 48.2352 49.0975ZM33.8049 46.223C32.1951 46.223 31.0453 47.3728 31.0453 49.0975C31.0453 50.8223 32.1951 51.9721 33.8624 51.9721C34.6673 51.9721 35.4721 51.7421 36.1045 51.2247L35.5296 50.3624C35.0697 50.7073 34.4948 50.9373 33.9199 50.9373C33.1725 50.9373 32.4251 50.5923 32.2526 49.615H36.3345C36.3345 49.4425 36.3345 49.3275 36.3345 49.155C36.392 47.3728 35.3572 46.223 33.8049 46.223V46.223ZM33.8049 47.2578C34.5523 47.2578 35.0697 47.7178 35.1847 48.5801H32.3101C32.4251 47.8327 32.9425 47.2578 33.8049 47.2578ZM63.7578 49.0975V44.1533H62.5505V47.0279C62.148 46.5105 61.5731 46.223 60.8257 46.223C59.2735 46.223 58.0662 47.4303 58.0662 49.0975C58.0662 50.7648 59.2735 51.9721 60.8257 51.9721C61.6306 51.9721 62.2055 51.6846 62.5505 51.1672V51.8571H63.7578V49.0975ZM59.3309 49.0975C59.3309 48.1202 59.9633 47.3153 60.9982 47.3153C61.9755 47.3153 62.6654 48.0627 62.6654 49.0975C62.6654 50.0749 61.9755 50.8798 60.9982 50.8798C59.9633 50.8223 59.3309 50.0749 59.3309 49.0975ZM18.9722 49.0975V46.338H17.7649V47.0279C17.3624 46.5105 16.7875 46.223 16.0401 46.223C14.4879 46.223 13.2806 47.4303 13.2806 49.0975C13.2806 50.7648 14.4879 51.9721 16.0401 51.9721C16.845 51.9721 17.4199 51.6846 17.7649 51.1672V51.8571H18.9722V49.0975ZM14.4879 49.0975C14.4879 48.1202 15.1203 47.3153 16.1551 47.3153C17.1325 47.3153 17.8224 48.0627 17.8224 49.0975C17.8224 50.0749 17.1325 50.8798 16.1551 50.8798C15.1203 50.8223 14.4879 50.0749 14.4879 49.0975Z" fill="black"/>
<path d="M42.5418 4.42676H24.4321V36.9667H42.5418V4.42676Z" fill="#FF5F00"/>
<path d="M25.5836 20.6968C25.5836 14.0853 28.6881 8.22124 33.4598 4.42682C29.9529 1.66725 25.5261 0 20.6968 0C9.25607 0 0 9.25607 0 20.6968C0 32.1375 9.25607 41.3936 20.6968 41.3936C25.5261 41.3936 29.9529 39.7264 33.4598 36.9668C28.6881 33.2299 25.5836 27.3083 25.5836 20.6968Z" fill="#EB001B"/>
<path d="M66.9779 20.6968C66.9779 32.1375 57.7218 41.3936 46.2811 41.3936C41.4518 41.3936 37.025 39.7264 33.5181 36.9668C38.3473 33.1724 41.3944 27.3083 41.3944 20.6968C41.3944 14.0853 38.2898 8.22124 33.5181 4.42682C37.025 1.66725 41.4518 0 46.2811 0C57.7218 0 66.9779 9.31356 66.9779 20.6968Z" fill="#F79E1B"/>
</g>
<defs>
<clipPath id="clip0_6223_2226">
<rect width="66.9772" height="51.972" fill="white"/>
</clipPath>
</defs>
</svg>
