<svg width="107" height="38" viewBox="0 0 107 38" fill="none" xmlns="http://www.w3.org/2000/svg">
<path d="M13.0507 0.00109909H4.76953C4.20275 0.00109909 3.72085 0.543768 3.63243 1.28119L0.28311 29.2641C0.216495 29.816 0.541084 30.314 0.96604 30.314H4.91963C5.48631 30.314 5.9682 29.7715 6.05663 29.0327L6.95993 21.4854C7.04717 20.7464 7.53025 20.2039 8.09575 20.2039H10.7173C16.1724 20.2039 19.3207 16.7253 20.143 9.83211C20.5134 6.81629 20.1586 4.4468 19.087 2.78734C17.91 0.964916 15.8224 0.00109909 13.0507 0.00109909V0.00109909ZM14.0062 10.2215C13.5533 14.1373 11.2828 14.1373 9.08748 14.1373H7.83787L8.71453 6.82438C8.76665 6.38232 9.05719 6.05682 9.39629 6.05682H9.96898C11.4644 6.05682 12.8752 6.05682 13.6041 7.18004C14.0388 7.85032 14.1721 8.84596 14.0062 10.2215Z" fill="#283B82"/>
<path d="M37.8048 10.0953H33.8393C33.5015 10.0953 33.2097 10.4208 33.1574 10.8629L32.9821 12.3245L32.7047 11.7947C31.8462 10.1527 29.9317 9.60388 28.0209 9.60388C23.6388 9.60388 19.8959 13.9775 19.167 20.1128C18.788 23.1733 19.3268 26.0998 20.6442 28.1405C21.8527 30.017 23.5818 30.7988 25.6392 30.7988C29.1702 30.7988 31.1282 27.8072 31.1282 27.8072L30.9513 29.2592C30.8846 29.8145 31.2093 30.3123 31.632 30.3123H35.2038C35.7718 30.3123 36.2513 29.7697 36.341 29.0311L38.4842 11.1452C38.5521 10.5947 38.2287 10.0953 37.8048 10.0953V10.0953ZM32.2772 20.2661C31.8947 23.2514 30.0964 25.2558 27.8031 25.2558C26.6516 25.2558 25.7312 24.769 25.1402 23.8467C24.5542 22.9308 24.3314 21.6271 24.5179 20.175C24.875 17.2151 26.7036 15.1456 28.9618 15.1456C30.088 15.1456 31.0034 15.6386 31.6064 16.5688C32.2108 17.5086 32.4503 18.8203 32.2772 20.2661Z" fill="#283B82"/>
<path d="M58.9251 10.0955H54.9401C54.5599 10.0955 54.2027 10.3444 53.9872 10.7609L48.4909 21.4295L46.1612 11.1774C46.0147 10.5358 45.5655 10.0955 45.0569 10.0955H41.1409C40.6649 10.0955 40.3345 10.7081 40.4858 11.2985L44.8753 28.2732L40.7486 35.95C40.4239 36.5546 40.7508 37.3862 41.3117 37.3862H45.2919C45.6696 37.3862 46.0233 37.1436 46.2375 36.7351L59.4918 11.5237C59.8091 10.9204 59.4835 10.0955 58.9251 10.0955" fill="#283B82"/>
<path d="M72.1191 0.00109909H63.8366C63.2712 0.00109909 62.7892 0.543768 62.7007 1.28119L59.3514 29.2641C59.285 29.816 59.6094 30.314 60.0321 30.314H64.2823C64.6769 30.314 65.015 29.9344 65.0766 29.4173L66.0271 21.4854C66.1142 20.7464 66.5975 20.2039 67.1629 20.2039H69.7834C75.2395 20.2039 78.3867 16.7253 79.21 9.83211C79.5819 6.81629 79.2247 4.4468 78.153 2.78734C76.9772 0.964916 74.8908 0.00109909 72.1191 0.00109909V0.00109909ZM73.0746 10.2215C72.6228 14.1373 70.3526 14.1373 68.1558 14.1373H66.9075L67.7855 6.82438C67.8375 6.38232 68.1255 6.05682 68.4658 6.05682H69.0386C70.533 6.05682 71.9447 6.05682 72.6736 7.18004C73.1084 7.85032 73.2403 8.84596 73.0746 10.2215Z" fill="#469BDB"/>
<path d="M96.8721 10.0953H92.9089C92.5686 10.0953 92.279 10.4208 92.2283 10.8629L92.0527 12.3245L91.7743 11.7947C90.9158 10.1527 89.0025 9.60388 87.0918 9.60388C82.7094 9.60388 78.968 13.9775 78.2389 20.1128C77.8612 23.1733 78.3975 26.0998 79.7151 28.1405C80.926 30.017 82.6526 30.7988 84.7098 30.7988C88.2408 30.7988 90.1988 27.8072 90.1988 27.8072L90.0219 29.2592C89.9555 29.8145 90.2799 30.3123 90.7051 30.3123H94.2759C94.8414 30.3123 95.3234 29.7697 95.4118 29.0311L97.5563 11.1452C97.6215 10.5947 97.2971 10.0953 96.8721 10.0953V10.0953ZM91.3443 20.2661C90.964 23.2514 89.1634 25.2558 86.8702 25.2558C85.7209 25.2558 84.7983 24.769 84.2073 23.8467C83.6214 22.9308 83.4009 21.6271 83.5851 20.175C83.9446 17.2151 85.7707 15.1456 88.0291 15.1456C89.1551 15.1456 90.0704 15.6386 90.6735 16.5688C91.2801 17.5086 91.5199 18.8203 91.3443 20.2661Z" fill="#469BDB"/>
<path d="M101.547 0.768811L98.1483 29.2641C98.0819 29.816 98.4063 30.314 98.8289 30.314H102.246C102.814 30.314 103.296 29.7715 103.383 29.0327L106.735 1.05146C106.801 0.499142 106.477 -0.00024341 106.054 -0.00024341H102.228C101.89 0.00108829 101.599 0.32702 101.547 0.768811" fill="#469BDB"/>
</svg>
