<svg width="112" height="47" viewBox="0 0 112 47" fill="none" xmlns="http://www.w3.org/2000/svg">
<g clip-path="url(#clip0_6223_2266)">
<path d="M8.55682 18.134C8.55682 16.9295 9.54527 16.466 11.1827 16.466C13.5302 16.466 16.4955 17.1766 18.8432 18.4431V11.1838C16.2794 10.1645 13.7465 9.7629 11.1827 9.7629C4.91185 9.7629 0.741699 13.0373 0.741699 18.505C0.741699 27.0304 12.4798 25.6714 12.4798 29.3474C12.4798 30.7681 11.2444 31.2316 9.51443 31.2316C6.95066 31.2316 3.67622 30.1812 1.08139 28.7603V36.1122C3.95423 37.3478 6.85792 37.8727 9.51443 37.8727C15.9395 37.8727 20.3568 34.6913 20.3568 29.1619C20.326 19.9567 8.55682 21.5937 8.55682 18.134V18.134ZM29.4384 3.585L21.9013 5.19116L21.8705 29.934C21.8705 34.506 25.2993 37.8727 29.8711 37.8727C32.404 37.8727 34.2573 37.4095 35.2766 36.8534V30.5828C34.2884 30.9844 29.4076 32.4053 29.4076 27.8335V16.8676H35.2766V10.2881H29.4076L29.4384 3.585V3.585ZM44.8836 12.5738L44.3893 10.2881H37.717V37.3167H45.4396V18.9991C47.2619 16.6206 50.351 17.0531 51.3087 17.3928V10.2881C50.3202 9.91732 46.7061 9.23772 44.8836 12.5738V12.5738ZM53.1928 10.2881H60.9463V37.3167H53.1928V10.2881V10.2881ZM53.1928 7.94041L60.9463 6.27235V0.00170898L53.1928 1.63893V7.9402V7.94041ZM77.0708 9.7629C74.0436 9.7629 72.0975 11.1838 71.0165 12.1725L70.6147 10.2572H63.8191V46.2747L71.5415 44.6377L71.5725 35.8958C72.6846 36.699 74.3216 37.8419 77.04 37.8419C82.5694 37.8419 87.6044 33.3937 87.6044 23.6017C87.5735 14.6435 82.4766 9.7629 77.0708 9.7629V9.7629ZM75.2175 31.0461C73.395 31.0461 72.3136 30.3975 71.5725 29.5943L71.5415 18.134C72.3447 17.2383 73.4567 16.6206 75.2175 16.6206C78.0285 16.6206 79.9745 19.7713 79.9745 23.8178C79.9745 27.9571 78.0593 31.0461 75.2175 31.0461V31.0461ZM111.946 23.9106C111.946 16.0027 108.115 9.7629 100.794 9.7629C93.4424 9.7629 88.9942 16.0029 88.9942 23.8489C88.9942 33.1466 94.2458 37.8419 101.783 37.8419C105.459 37.8419 108.239 37.0079 110.339 35.8341V29.656C108.239 30.7064 105.829 31.3552 102.771 31.3552C99.7749 31.3552 97.1184 30.3048 96.7787 26.6598H111.884C111.884 26.258 111.946 24.6519 111.946 23.9106ZM96.686 20.976C96.686 17.4855 98.8175 16.0335 100.764 16.0335C102.648 16.0335 104.656 17.4855 104.656 20.976H96.686Z" fill="#154444" fill-opacity="0.86"/>
</g>
<defs>
<clipPath id="clip0_6223_2266">
<rect width="111.204" height="46.4833" fill="white" transform="translate(0.741699)"/>
</clipPath>
</defs>
</svg>
