<svg width="99" height="34" viewBox="0 0 99 34" fill="none" xmlns="http://www.w3.org/2000/svg">
<g clip-path="url(#clip0_6223_2214)">
<path d="M6.5749 24.2824C6.98607 25.3807 7.55532 26.3199 8.28277 27.0998C9.01021 27.8798 9.87201 28.4767 10.8682 28.8905C11.8645 29.3044 12.9476 29.5113 14.1178 29.5113C15.2565 29.5113 16.3238 29.2964 17.3201 28.8666C18.3163 28.4367 19.186 27.8319 19.9292 27.052C20.6724 26.272 21.2496 25.3409 21.6608 24.2585C22.072 23.1761 22.2775 21.9664 22.2775 20.6293V0H27.2586V33.427H22.3249V30.323C21.218 31.5009 19.9134 32.4082 18.4111 33.045C16.9088 33.6816 15.2881 34 13.5486 34C11.7774 34 10.125 33.6896 8.59106 33.0688C7.05724 32.448 5.72884 31.5647 4.60619 30.4185C3.48353 29.2724 2.5979 27.8957 1.9496 26.288C1.3012 24.6803 0.977051 22.8896 0.977051 20.9157V0H5.9582V20.6293C5.9582 21.9664 6.16373 23.184 6.5749 24.2824Z" fill="#154444"/>
<path d="M35.8446 0V12.1769C36.9515 11.0627 38.2325 10.1794 39.6872 9.5267C41.142 8.87402 42.7234 8.54773 44.4312 8.54773C46.2023 8.54773 47.8625 8.88195 49.4123 9.55048C50.962 10.219 52.306 11.1263 53.4446 12.2725C54.5832 13.4186 55.4846 14.7715 56.1488 16.3314C56.8129 17.8914 57.1449 19.5469 57.1449 21.2978C57.1449 23.0486 56.8129 24.6961 56.1488 26.2401C55.4846 27.7841 54.5832 29.1292 53.4446 30.2752C52.306 31.4213 50.962 32.3286 49.4123 32.9971C47.8625 33.6657 46.2022 33.9999 44.4312 33.9999C42.7233 33.9999 41.1341 33.6736 39.6635 33.0209C38.1929 32.3683 36.9041 31.4849 35.7971 30.3707V33.4269H31.0532V0H35.8446ZM36.3901 24.5927C36.817 25.6115 37.4101 26.5029 38.1692 27.2669C38.9282 28.031 39.8137 28.6359 40.8257 29.0816C41.8379 29.5273 42.9289 29.7501 44.0991 29.7501C45.2377 29.7501 46.313 29.5273 47.325 29.0816C48.337 28.6359 49.2145 28.0311 49.9579 27.2669C50.7011 26.503 51.2941 25.6115 51.7369 24.5927C52.1796 23.574 52.401 22.4757 52.401 21.2978C52.401 20.1199 52.1796 19.0136 51.7369 17.9789C51.2941 16.9443 50.7011 16.045 49.9579 15.2809C49.2146 14.517 48.3371 13.92 47.325 13.4902C46.3129 13.0605 45.2376 12.8455 44.0991 12.8455C42.9606 12.8455 41.8853 13.0604 40.8733 13.4902C39.8613 13.9201 38.9757 14.517 38.2166 15.2809C37.4577 16.045 36.8567 16.9443 36.4139 17.9789C35.9712 19.0136 35.7498 20.1199 35.7498 21.2978C35.7497 22.4757 35.9632 23.574 36.3901 24.5927Z" fill="#154444"/>
<path d="M59.849 16.3793C60.4815 14.8512 61.3513 13.5062 62.4581 12.3442C63.565 11.1822 64.8776 10.267 66.3957 9.59845C67.9138 8.92992 69.5583 8.5957 71.3294 8.5957C73.0689 8.5957 74.6818 8.91407 76.1683 9.55069C77.6547 10.1874 78.9355 11.0709 80.0109 12.201C81.0862 13.3311 81.9244 14.6683 82.5251 16.2122C83.1261 17.7563 83.4265 19.4356 83.4265 21.2503V22.8261H63.7391C63.8973 23.813 64.2136 24.7283 64.6879 25.5718C65.1624 26.4154 65.7553 27.1476 66.4669 27.7684C67.1785 28.3893 67.9849 28.8748 68.8863 29.2249C69.7877 29.575 70.7443 29.7502 71.7564 29.7502C74.6345 29.7502 76.9591 28.5563 78.7301 26.1687L82.1932 28.7473C80.9914 30.3709 79.505 31.6443 77.7339 32.5675C75.9628 33.4907 73.9703 33.9523 71.7565 33.9523C69.9538 33.9523 68.2697 33.6339 66.7042 32.9973C65.1387 32.3606 63.7788 31.4692 62.6244 30.323C61.4701 29.1769 60.5608 27.8319 59.8967 26.288C59.2325 24.744 58.9004 23.0646 58.9004 21.25C58.9002 19.531 59.2166 17.9074 59.849 16.3793ZM66.5143 14.493C65.1702 15.6232 64.2768 17.1274 63.834 19.0056H78.5878C78.1766 17.1274 77.2989 15.6232 75.9548 14.493C74.6107 13.3629 73.0373 12.7978 71.2346 12.7978C69.4318 12.7978 67.8584 13.3629 66.5143 14.493Z" fill="#154444"/>
<path d="M92.3921 15.042C91.3801 16.1562 90.874 17.6684 90.874 19.5785V33.427H86.0825V9.07298H90.8264V12.0814C91.4274 11.0945 92.2102 10.3145 93.1747 9.74151C94.1393 9.16839 95.2858 8.88184 96.6142 8.88184H98.2745V13.3706H96.2821C94.7008 13.3707 93.4041 13.9278 92.3921 15.042Z" fill="#154444"/>
</g>
<defs>
<clipPath id="clip0_6223_2214">
<rect width="97.2975" height="34" fill="white" transform="translate(0.977051)"/>
</clipPath>
</defs>
</svg>
