<svg width="91" height="32" viewBox="0 0 91 32" fill="none" xmlns="http://www.w3.org/2000/svg">
<g clip-path="url(#clip0_6223_2237)">
<path d="M33.5972 29.7599L38.1483 4.15991H45.2594L40.8505 29.7599H33.5972Z" fill="#3C58BF"/>
<path d="M33.5972 29.7599L39.4283 4.15991H45.2594L40.8505 29.7599H33.5972Z" fill="#293688"/>
<path d="M66.5925 4.44442C65.1703 3.87553 62.8947 3.30664 60.0503 3.30664C52.9392 3.30664 47.8192 6.86219 47.8192 11.9822C47.8192 15.8222 51.3747 17.8133 54.2192 19.0933C57.0636 20.3733 57.917 21.2266 57.917 22.3644C57.917 24.0711 55.6414 24.9244 53.6503 24.9244C50.8059 24.9244 49.2414 24.4978 46.8236 23.5022L45.8281 23.0755L44.8325 28.9066C46.5392 29.6178 49.6681 30.3289 52.9392 30.3289C60.477 30.3289 65.4547 26.7733 65.4547 21.3689C65.4547 18.3822 63.6059 16.1066 59.3392 14.2577C56.7792 12.9777 55.2147 12.2666 55.2147 10.9866C55.2147 9.84886 56.4947 8.71108 59.3392 8.71108C61.757 8.71108 63.4636 9.13775 64.7436 9.70664L65.4547 9.99108L66.5925 4.44442Z" fill="#3C58BF"/>
<path d="M66.5925 4.44442C65.1703 3.87553 62.8947 3.30664 60.0503 3.30664C52.9392 3.30664 49.0992 6.86219 49.0992 11.9822C49.0992 15.8222 51.3747 17.8133 54.2192 19.0933C57.0636 20.3733 57.917 21.2266 57.917 22.3644C57.917 24.0711 55.6414 24.9244 53.6503 24.9244C50.8059 24.9244 49.2414 24.4978 46.8236 23.5022L45.8281 23.0755L44.8325 28.9066C46.5392 29.6178 49.6681 30.3289 52.9392 30.3289C60.477 30.3289 65.4547 26.7733 65.4547 21.3689C65.4547 18.3822 63.6059 16.1066 59.3392 14.2577C56.7792 12.9777 55.2147 12.2666 55.2147 10.9866C55.2147 9.84886 56.4947 8.71108 59.3392 8.71108C61.757 8.71108 63.4636 9.13775 64.7436 9.70664L65.4547 9.99108L66.5925 4.44442Z" fill="#293688"/>
<path d="M78.8239 4.15991C77.1172 4.15991 75.8372 4.30214 75.1261 6.0088L64.4595 29.7599H72.1395L73.5617 25.4932H82.6639L83.5172 29.7599H90.3439L84.3706 4.15991H78.8239V4.15991ZM75.5528 21.2266C75.9795 19.9466 78.3972 13.6888 78.3972 13.6888C78.3972 13.6888 78.9661 12.1244 79.3928 11.1288L79.8195 13.5466C79.8195 13.5466 81.2417 19.9466 81.5261 21.3688H75.5528V21.2266Z" fill="#3C58BF"/>
<path d="M80.5306 4.15991C78.8239 4.15991 77.5439 4.30214 76.8328 6.0088L64.4595 29.7599H72.1395L73.5617 25.4932H82.6639L83.5172 29.7599H90.3439L84.3706 4.15991H80.5306V4.15991ZM75.5528 21.2266C76.1217 19.8044 78.3972 13.6888 78.3972 13.6888C78.3972 13.6888 78.9661 12.1244 79.3928 11.1288L79.8195 13.5466C79.8195 13.5466 81.2417 19.9466 81.5261 21.3688H75.5528V21.2266Z" fill="#293688"/>
<path d="M20.5124 22.08L19.8013 18.3822C18.5213 14.1156 14.3968 9.42225 9.8457 7.14669L16.2457 29.9022H23.9257L35.4457 4.30225H27.7657L20.5124 22.08Z" fill="#3C58BF"/>
<path d="M20.5124 22.08L19.8013 18.3822C18.5213 14.1156 14.3968 9.42225 9.8457 7.14669L16.2457 29.9022H23.9257L35.4457 4.30225H29.1879L20.5124 22.08Z" fill="#293688"/>
<path d="M0.743652 4.15991L2.02365 4.44436C11.1259 6.57769 17.3837 11.9821 19.8014 18.3821L17.2414 6.29325C16.8148 4.58658 15.5348 4.15991 13.9703 4.15991H0.743652V4.15991Z" fill="#FFBC00"/>
<path d="M0.743652 4.15991C9.84587 6.29325 17.3837 11.8399 19.8014 18.2399L17.3837 8.14214C16.957 6.43547 15.5348 5.43991 13.9703 5.43991L0.743652 4.15991Z" fill="#F7981D"/>
<path d="M0.743652 4.15991C9.84587 6.29325 17.3837 11.8399 19.8014 18.2399L18.0948 12.6932C17.6681 10.9866 17.0992 9.27991 15.1081 8.5688L0.743652 4.15991Z" fill="#ED7C00"/>
<path d="M27.6233 21.2266L22.7878 16.3911L20.5122 21.7955L19.9433 18.24C18.6633 13.9733 14.5389 9.27995 9.98779 7.00439L16.3878 29.7599H24.0678L27.6233 21.2266Z" fill="#051244"/>
<path d="M40.8495 29.7602L34.734 23.5024L33.5962 29.7602H40.8495Z" fill="#051244"/>
<path d="M57.2059 20.9421C57.7747 21.511 58.0592 21.9377 57.917 22.5066C57.917 24.2133 55.6414 25.0666 53.6503 25.0666C50.8059 25.0666 49.2414 24.6399 46.8236 23.6444L45.8281 23.2177L44.8325 29.0488C46.5392 29.7599 49.6681 30.471 52.9392 30.471C57.4903 30.471 61.1881 29.191 63.3214 26.9155L57.2059 20.9421Z" fill="#051244"/>
<path d="M65.4546 29.7598H72.139L73.5613 25.4931H82.6635L83.5168 29.7598H90.3435L87.9257 19.3776L79.3924 11.1287L79.819 13.4042C79.819 13.4042 81.2413 19.8042 81.5257 21.2264H75.5524C76.1213 19.8042 78.3968 13.6887 78.3968 13.6887C78.3968 13.6887 78.9657 12.1242 79.3924 11.1287" fill="#051244"/>
</g>
<defs>
<clipPath id="clip0_6223_2237">
<rect width="89.6" height="32" fill="white" transform="translate(0.743652)"/>
</clipPath>
</defs>
</svg>
